<?xml version="1.0" standalone="no"?>
<!DOCTYPE svg PUBLIC "-//W3C//DTD SVG 20010904//EN" "http://www.w3.org/TR/2001/REC-SVG-20010904/DTD/svg10.dtd">
<svg xmlns="http://www.w3.org/2000/svg"
     width="700.000000pt"
     height="700.000000pt"
     viewBox="0 0 700.000000 700.000000"
     preserveAspectRatio="xMidYMid meet">
    <g transform="translate(0.000000,700.000000) scale(0.100000,-0.100000)"
       fill="#000000"
       stroke="none">
        <path d="M2345 6476 l-25 -25 0 -933 0 -933 578 -577 c453 -453 583 -578 602 -578 19 0 149 125 602 578 l578 577 0 931 c0 903 -1 933 -19 955 l-19 24 -1136 3 -1137 2 -24 -24z m1675 -580 l0 -124 -87 -9 c-111 -10 -832 -10 -895 0 l-48 8 0 120 0 120 123 -8 c154 -10 708 -7 807 5 41 5 81 10 88 11 9 1 12 -30 12 -123z m-919 -652 l46 -5 -13 -57 c-43 -183 3 -263 177 -308 54 -14 100 -16 284 -11 236 6 381 24 518 63 16 5 17 -4 15 -127 l-3 -133 -60 -13 c-222 -45 -656 -58 -823 -24 -172 36 -294 116 -343 224 -21 44 -24 68 -24 162 0 61 6 141 14 179 l14 68 76 -6 c42 -4 97 -9 122 -12z"/>
        <path d="M1166 4135 c-38 -344 -44 -404 -51 -520 -6 -105 6 -338 20 -385 4 -13 19 -14 92 -8 49 3 97 7 109 7 20 1 21 6 21 129 -1 152 14 217 79 350 141 288 396 367 510 157 85 -156 86 -444 3 -614 -79 -161 -268 -272 -546 -321 -40 -7 -73 -17 -73 -22 0 -5 29 -54 65 -109 73 -111 52 -103 180 -72 284 68 493 215 594 416 68 135 84 214 84 407 0 138 -3 178 -21 245 -49 180 -143 310 -267 371 -54 26 -70 29 -160 29 -94 0 -104 -2 -176 -36 -81 -39 -200 -141 -240 -206 -12 -19 -23 -32 -26 -30 -5 6 32 220 52 297 8 30 11 58 7 61 -4 4 -59 9 -123 11 l-115 3 -18 -160z"/>
        <path d="M5043 3952 c-178 -349 -330 -667 -430 -897 -92 -213 -104 -245 -90 -250 193 -68 242 -84 244 -82 1 2 28 79 58 173 70 211 129 334 195 407 90 98 188 125 252 68 l32 -29 7 -193 c4 -107 12 -212 18 -234 21 -79 99 -153 185 -176 63 -17 220 -6 286 19 144 57 268 208 343 417 l25 70 -89 73 c-49 40 -94 75 -101 77 -9 4 -20 -21 -36 -77 -60 -216 -163 -338 -286 -338 -36 0 -52 6 -78 29 l-33 29 -6 199 c-4 109 -12 215 -19 237 -6 21 -31 57 -55 81 -34 35 -54 45 -100 55 -62 13 -153 3 -219 -25 -20 -9 -36 -13 -36 -11 0 12 239 421 291 499 32 49 59 92 59 96 0 8 -227 101 -245 101 -6 0 -83 -143 -172 -318z"/>
        <path d="M3261 2351 c-35 -44 -63 -83 -63 -88 0 -4 24 -17 54 -29 58 -23 214 -99 266 -132 l34 -20 -57 -42 c-47 -35 -55 -44 -44 -54 8 -7 42 -38 75 -70 l62 -57 118 92 c66 51 125 98 133 105 12 11 11 22 -9 76 -28 77 -36 86 -130 135 -70 37 -310 143 -356 157 -17 5 -32 -7 -83 -73z"/>
        <path d="M3277 1807 l-87 -72 42 -35 c179 -146 313 -322 333 -437 9 -58 -14 -110 -59 -128 -49 -21 -183 -19 -286 4 -47 11 -86 18 -88 16 -4 -4 28 -227 34 -236 8 -14 212 -31 317 -27 93 3 121 9 167 29 107 50 152 110 171 229 19 117 -27 255 -128 391 -46 62 -310 339 -322 339 -3 0 -45 -33 -94 -73z"/>
        <path d="M3944 1669 l-92 -49 55 -82 c70 -104 151 -274 194 -403 18 -55 36 -104 40 -108 8 -10 219 100 219 114 0 20 -66 172 -123 284 -69 135 -172 295 -190 295 -7 -1 -53 -23 -103 -51z"/>
        <path d="M3050 1493 c-67 -69 -229 -195 -325 -254 -47 -29 -85 -54 -85 -57 0 -9 133 -192 140 -192 10 0 172 113 236 164 94 76 224 197 224 207 0 13 -129 179 -138 179 -4 0 -27 -21 -52 -47z"/>
    </g>
</svg>
