<svg width="1024" height="1024" version="1.1" viewBox="0 0 270.93 270.93" xmlns="http://www.w3.org/2000/svg"><g transform="translate(0 -26.067)"><g><path d="m178.56 274.95v-70.327h-5.3e-4l-43.089-43.089-43.089 43.089v70.304z" fill="#d8d8d8" stroke="#d8d8d8" stroke-linejoin="round" stroke-miterlimit="6.1" stroke-width="5.2917"/><g fill="#565656"><path d="m133.17 219.69 5.715 5.1506c2.8222-1.9756 8.255-6.35 10.16-7.9022l-2.1167-5.5033c-4.7978-2.9633-12.347-6.2089-18.203-8.3961l-5.2211 6.4911c5.3622 1.905 11.077 4.8683 14.111 6.9144-0.98778 0.77611-2.7517 2.0461-4.445 3.2456zm-11.994 32.526 1.3406 9.3133c3.4572 0.56445 7.4789 1.0583 11.43 1.0583 7.2672 0 14.041-2.8222 14.041-12.277 0-6.5617-4.1628-12.841-11.783-20.461-1.7639-1.905-3.5983-3.5983-5.715-5.715l-6.9144 5.7856c2.3989 1.7639 4.7272 3.81 6.5617 5.5739 3.175 3.175 8.0433 9.525 8.0433 13.758 0 3.3161-2.54 4.6567-6.1383 4.6567-3.3867 0-6.985-0.56444-10.866-1.6933zm39.088 5.4328 8.5372-4.5861c-2.1167-6.5617-7.62-17.357-11.994-22.719l-7.62 4.0217c4.7272 5.9267 9.3839 16.228 11.077 23.283zm-34.784-13.406-5.3622-6.9144c-4.1628 4.5861-11.853 10.583-17.992 13.829l5.3622 7.62c7.5494-4.6567 14.041-10.301 17.992-14.534z" fill="#565656" stroke-width=".26458"/></g></g><path d="m22.051 204.62h70.327v-5.3e-4l43.089-43.089-43.089-43.089h-70.304z" fill="#eee" fill-opacity=".96818" stroke="#eee" stroke-linejoin="round" stroke-miterlimit="6.1" stroke-width="5.2917"/><g fill="#616161"><path d="m55.331 131.19-9.6661-0.42334c0 1.905-0.21167 4.7272-0.56444 7.4083-0.98778 7.2672-1.9756 16.016-1.9756 22.578 0 4.7272 0.49389 9.0311 0.91722 11.783l8.6783-0.56444c-0.42333-3.3161-0.49389-5.5739-0.35278-7.4789 0.35278-9.3133 7.62-21.802 15.946-21.802 5.9267 0 9.5956 6.0678 9.5956 16.933 0 17.074-11.077 22.225-26.741 24.624l5.3622 8.1844c18.697-3.3867 30.903-12.912 30.903-32.879 0-15.522-7.62-25.118-17.427-25.118-7.9728 0-14.111 5.9267-17.498 11.43 0.42333-3.9511 1.8344-11.218 2.8222-14.676z" fill="#616161" stroke-width=".26458"/></g><path d="m248.88 118.44h-70.327v5.3e-4l-43.089 43.089 43.089 43.089h70.304z" fill="#eee" fill-opacity=".96818" stroke="#eee" stroke-linejoin="round" stroke-miterlimit="6.1" stroke-width="5.2917"/><g fill="#616161"><path d="m211.56 135.53-10.019-4.0217c-1.1994 2.9633-2.54 5.2917-3.4572 7.1967-3.7394 6.7028-18.203 35.489-23.424 49.601l9.9483 3.3867c1.0583-3.7394 3.5278-11.642 5.3622-15.734 2.54-5.715 6.4911-10.654 11.289-10.654 2.54 0 3.9511 1.4817 4.1628 3.9511 0.21166 2.8928 0.14111 8.6783 0.42333 12.418 0.28222 5.1506 3.9511 9.8072 11.783 9.8072 10.795 0 17.357-8.0433 21.026-20.108l-7.62-6.2089c-2.0461 8.7489-5.7856 16.651-11.924 16.651-2.3283 0-4.3039-1.0583-4.5861-3.81-0.35277-2.9633-0.14111-8.6078-0.28222-11.783-0.28222-5.8561-3.4572-9.1722-8.7489-9.1722-2.6811 0-5.5033 0.635-8.1139 2.1167 3.5278-6.2089 8.4667-15.24 11.924-20.32 0.77611-1.1289 1.5522-2.3283 2.2578-3.3161z" fill="#616161" stroke-width=".26458"/></g><g><path d="m92.377 48.118v70.327h5.3e-4l43.089 43.089 43.089-43.089v-70.304z" fill="#18c2d8" stroke="#18c2d8" stroke-linejoin="round" stroke-miterlimit="6.1" stroke-width="5.2917"/><g fill="#fff"><path d="m115.82 64.344v9.3133c5.715 0.49389 11.853 0.77611 19.262 0.77611 6.7028 0 15.452-0.42333 20.391-0.84667v-9.3839c-5.4328 0.56444-13.476 0.98778-20.461 0.98778-7.4083 0-13.97-0.28222-19.191-0.84667zm5.9267 29.916-9.2428-0.84667c-0.56445 2.6106-1.4111 6.0678-1.4111 10.16 0 9.6661 8.1139 15.099 24.271 15.099 9.8778 0 18.344-0.91722 24.483-2.3989l-0.0706-9.9483c-6.2089 1.7639-15.24 2.8222-24.765 2.8222-10.16 0-14.464-3.2456-14.464-7.7611 0-2.3989 0.49389-4.5861 1.1994-7.1261z" fill="#fff" stroke-width=".26458"/></g></g></g></svg>
