<?xml version="1.0" encoding="UTF-8" standalone="no"?>
<!-- Created with Inkscape (http://www.inkscape.org/) -->

<svg
   xmlns:dc="http://purl.org/dc/elements/1.1/"
   xmlns:cc="http://creativecommons.org/ns#"
   xmlns:rdf="http://www.w3.org/1999/02/22-rdf-syntax-ns#"
   xmlns:svg="http://www.w3.org/2000/svg"
   xmlns="http://www.w3.org/2000/svg"
   xmlns:sodipodi="http://sodipodi.sourceforge.net/DTD/sodipodi-0.dtd"
   xmlns:inkscape="http://www.inkscape.org/namespaces/inkscape"
   width="1024"
   height="1024"
   viewBox="0 0 270.93332 270.93334"
   version="1.1"
   id="svg8"
   inkscape:export-filename="/home/siketyan/Pictures/bitmap.png"
   inkscape:export-xdpi="96"
   inkscape:export-ydpi="96"
   inkscape:version="0.92.4 5da689c313, 2019-01-14"
   sodipodi:docname="conflick.svg">
  <defs
     id="defs2" />
  <sodipodi:namedview
     id="base"
     pagecolor="#ffffff"
     bordercolor="#666666"
     borderopacity="1.0"
     inkscape:pageopacity="0.0"
     inkscape:pageshadow="2"
     inkscape:zoom="0.7"
     inkscape:cx="323.09383"
     inkscape:cy="499.58654"
     inkscape:document-units="mm"
     inkscape:current-layer="text4717"
     showgrid="false"
     units="px"
     inkscape:window-width="1858"
     inkscape:window-height="1018"
     inkscape:window-x="62"
     inkscape:window-y="32"
     inkscape:window-maximized="1" />
  <metadata
     id="metadata5">
    <rdf:RDF>
      <cc:Work
         rdf:about="">
        <dc:format>image/svg+xml</dc:format>
        <dc:type
           rdf:resource="http://purl.org/dc/dcmitype/StillImage" />
        <dc:title></dc:title>
      </cc:Work>
    </rdf:RDF>
  </metadata>
  <g
     inkscape:label="Master"
     id="layer1"
     transform="translate(0,-26.066649)"
     inkscape:groupmode="layer">
    <g
       id="g4743"
       inkscape:label="Fu"
       style="display:inline"
       inkscape:groupmode="layer">
      <path
         sodipodi:nodetypes="ccccccc"
         inkscape:connector-curvature="0"
         id="rect3713-6-0"
         d="m 178.55603,274.94905 v -70.32664 h -5.3e-4 l -43.08884,-43.08936 -43.089355,43.08936 v 70.30372 z"
         style="fill:#d8d8d8;fill-opacity:1;stroke:#d8d8d8;stroke-width:5.29166651;stroke-linejoin:round;stroke-miterlimit:6.0999999;stroke-dasharray:none;stroke-opacity:1"
         inkscape:label="Shape" />
      <g
         aria-label="ふ"
         style="font-style:normal;font-variant:normal;font-weight:bold;font-stretch:normal;font-size:70.55555725px;line-height:1.25;font-family:sans-serif;-inkscape-font-specification:'sans-serif Bold';letter-spacing:0px;word-spacing:0px;fill:#565656;fill-opacity:1;stroke:none;stroke-width:0.26458332"
         id="text4717"
         inkscape:label="Text">
        <path
           d="m 133.17361,219.68686 5.715,5.15055 c 2.82222,-1.97555 8.255,-6.35 10.16,-7.90222 l -2.11667,-5.50333 c -4.79777,-2.96334 -12.34722,-6.20889 -18.20333,-8.39611 l -5.22111,6.49111 c 5.36222,1.905 11.07722,4.86833 14.11111,6.91444 -0.98778,0.77611 -2.75167,2.04611 -4.445,3.24556 z m -11.99444,32.52611 1.34055,9.31333 c 3.45722,0.56445 7.47889,1.05834 11.43,1.05834 7.26722,0 14.04056,-2.82223 14.04056,-12.27667 0,-6.56167 -4.16278,-12.84111 -11.78278,-20.46111 -1.76389,-1.905 -3.59833,-3.59834 -5.715,-5.715 l -6.91444,5.78555 c 2.39888,1.76389 4.72722,3.81 6.56166,5.57389 3.175,3.175 8.04334,9.525 8.04334,13.75834 0,3.31611 -2.54,4.65666 -6.13834,4.65666 -3.38666,0 -6.985,-0.56444 -10.86555,-1.69333 z m 39.08778,5.43278 8.53722,-4.58611 c -2.11667,-6.56167 -7.62,-17.35667 -11.99445,-22.71889 l -7.62,4.02166 c 4.72722,5.92667 9.38389,16.22778 11.07723,23.28334 z m -34.78389,-13.40556 -5.36223,-6.91444 c -4.16277,4.58611 -11.85333,10.58333 -17.99166,13.82889 l 5.36222,7.62 c 7.54944,-4.65667 14.04055,-10.30112 17.99167,-14.53445 z"
           style="font-style:normal;font-variant:normal;font-weight:bold;font-stretch:normal;font-size:70.55555725px;font-family:sans-serif;-inkscape-font-specification:'sans-serif Bold';fill:#565656;fill-opacity:1;stroke-width:0.26458332"
           id="path4938"
           inkscape:connector-curvature="0"
           inkscape:label="Path" />
      </g>
    </g>
    <g
       id="g4738"
       inkscape:label="Ri"
       inkscape:groupmode="layer">
      <path
         sodipodi:nodetypes="ccccccc"
         inkscape:connector-curvature="0"
         id="rect3713-6-0-4"
         d="m 22.050675,204.62295 h 70.32663 v -5.3e-4 L 135.46667,161.53358 92.377305,118.44422 h -70.30371 z"
         style="display:inline;fill:#eeeeee;fill-opacity:0.96818177;stroke:#eeeeee;stroke-width:5.29166651;stroke-linejoin:round;stroke-miterlimit:6.0999999;stroke-dasharray:none;stroke-opacity:1"
         inkscape:label="Shape" />
      <g
         aria-label="り"
         style="font-style:normal;font-variant:normal;font-weight:bold;font-stretch:normal;font-size:70.55555725px;line-height:1.25;font-family:sans-serif;-inkscape-font-specification:'sans-serif Bold';letter-spacing:0px;word-spacing:0px;fill:#616161;fill-opacity:1;stroke:none;stroke-width:0.26458332"
         id="text4721"
         inkscape:label="Text">
        <path
           d="m 55.330669,131.19002 -9.666111,-0.42334 c 0,1.905 -0.211667,4.72723 -0.564444,7.40834 -0.987778,7.26722 -1.975556,16.01611 -1.975556,22.57778 0,4.72722 0.493889,9.03111 0.917222,11.78277 l 8.678334,-0.56444 c -0.423334,-3.31611 -0.493889,-5.57389 -0.352778,-7.47889 0.352778,-9.31333 7.62,-21.80167 15.945556,-21.80167 5.926667,0 9.595556,6.06778 9.595556,16.93334 0,17.07444 -11.077223,22.225 -26.740557,24.62389 l 5.362223,8.18444 c 18.697222,-3.38667 30.903334,-12.91167 30.903334,-32.87889 0,-15.52222 -7.62,-25.11778 -17.427223,-25.11778 -7.972778,0 -14.111111,5.92667 -17.497778,11.43 0.423333,-3.95111 1.834445,-11.21833 2.822222,-14.67555 z"
           style="font-style:normal;font-variant:normal;font-weight:bold;font-stretch:normal;font-size:70.55555725px;font-family:sans-serif;-inkscape-font-specification:'sans-serif Bold';fill:#616161;fill-opacity:1;stroke-width:0.26458332"
           id="path4935"
           inkscape:connector-curvature="0"
           inkscape:label="Path" />
      </g>
    </g>
    <g
       id="g4733"
       inkscape:label="N"
       inkscape:groupmode="layer">
      <path
         sodipodi:nodetypes="ccccccc"
         inkscape:connector-curvature="0"
         id="rect3713-6-0-4-7"
         d="m 248.88266,118.44421 h -70.32663 v 5.3e-4 l -43.08936,43.08884 43.08936,43.08936 h 70.30371 z"
         style="display:inline;fill:#eeeeee;fill-opacity:0.96818177;stroke:#eeeeee;stroke-width:5.29166651;stroke-linejoin:round;stroke-miterlimit:6.0999999;stroke-dasharray:none;stroke-opacity:1"
         inkscape:label="Shape" />
      <g
         aria-label="ん"
         style="font-style:normal;font-variant:normal;font-weight:bold;font-stretch:normal;font-size:70.55555725px;line-height:1.25;font-family:sans-serif;-inkscape-font-specification:'sans-serif Bold';letter-spacing:0px;word-spacing:0px;fill:#616161;fill-opacity:1;stroke:none;stroke-width:0.26458332"
         id="text4713"
         inkscape:label="Text">
        <path
           d="m 211.55577,135.52919 -10.01889,-4.02167 c -1.19944,2.96333 -2.54,5.29167 -3.45722,7.19667 -3.73944,6.70277 -18.20333,35.48944 -23.42445,49.60055 l 9.94834,3.38667 c 1.05833,-3.73944 3.52778,-11.64167 5.36222,-15.73389 2.54,-5.715 6.49111,-10.65389 11.28889,-10.65389 2.54,0 3.95111,1.48167 4.16278,3.95111 0.21166,2.89278 0.14111,8.67834 0.42333,12.41778 0.28222,5.15056 3.95111,9.80722 11.78278,9.80722 10.795,0 17.35667,-8.04333 21.02556,-20.10833 l -7.62,-6.20889 c -2.04612,8.74889 -5.78556,16.65111 -11.92389,16.65111 -2.32834,0 -4.30389,-1.05833 -4.58612,-3.81 -0.35277,-2.96333 -0.14111,-8.60778 -0.28222,-11.78278 -0.28222,-5.85611 -3.45722,-9.17222 -8.74889,-9.17222 -2.68111,0 -5.50333,0.635 -8.11389,2.11667 3.52778,-6.20889 8.46667,-15.24 11.92389,-20.32 0.77611,-1.12889 1.55223,-2.32834 2.25778,-3.31611 z"
           style="font-style:normal;font-variant:normal;font-weight:bold;font-stretch:normal;font-size:70.55555725px;font-family:sans-serif;-inkscape-font-specification:'sans-serif Bold';fill:#616161;fill-opacity:1;stroke-width:0.26458332"
           id="path4932"
           inkscape:connector-curvature="0"
           inkscape:label="Path" />
      </g>
    </g>
    <g
       id="g4728"
       inkscape:label="Ko"
       inkscape:groupmode="layer">
      <path
         sodipodi:nodetypes="ccccccc"
         inkscape:connector-curvature="0"
         id="rect3713-6-0-6"
         d="m 92.377298,48.117578 v 70.326642 h 5.3e-4 l 43.088842,43.08936 43.08936,-43.08936 V 48.140498 Z"
         style="display:inline;fill:#18c2d8;fill-opacity:1;stroke:#18c2d8;stroke-width:5.29166651;stroke-linejoin:round;stroke-miterlimit:6.0999999;stroke-dasharray:none;stroke-opacity:1"
         inkscape:label="Shape" />
      <g
         aria-label="こ"
         style="font-style:normal;font-variant:normal;font-weight:bold;font-stretch:normal;font-size:70.55555725px;line-height:1.25;font-family:sans-serif;-inkscape-font-specification:'sans-serif Bold';letter-spacing:0px;word-spacing:0px;fill:#ffffff;fill-opacity:1;stroke:none;stroke-width:0.26458332"
         id="text4701"
         inkscape:label="Text">
        <path
           d="m 115.81694,64.343683 v 9.313334 c 5.715,0.493889 11.85333,0.776111 19.26167,0.776111 6.70278,0 15.45166,-0.423334 20.39055,-0.846667 v -9.383889 c -5.43277,0.564444 -13.47611,0.987778 -20.46111,0.987778 -7.40833,0 -13.97,-0.282222 -19.19111,-0.846667 z m 5.92667,29.915556 -9.24278,-0.846666 c -0.56445,2.610555 -1.41111,6.067778 -1.41111,10.159997 0,9.66611 8.11389,15.09889 24.27111,15.09889 9.87778,0 18.34444,-0.91722 24.48278,-2.39889 l -0.0706,-9.94833 c -6.20889,1.76389 -15.24,2.82222 -24.765,2.82222 -10.16,0 -14.46389,-3.24555 -14.46389,-7.76111 0,-2.398888 0.49389,-4.586111 1.19945,-7.126111 z"
           style="font-style:normal;font-variant:normal;font-weight:bold;font-stretch:normal;font-size:70.55555725px;font-family:sans-serif;-inkscape-font-specification:'sans-serif Bold';fill:#ffffff;fill-opacity:1;stroke-width:0.26458332"
           id="path4929"
           inkscape:connector-curvature="0"
           inkscape:label="Path" />
      </g>
    </g>
  </g>
</svg>
